/* XPM */
static char *_072d56a3adb4578a30a7ff7d8788915[] = {
/* columns rows colors chars-per-pixel */
"32 32 67 1 ",
"  c #030000",
". c #0A0000",
"X c #0C0000",
"o c #0D0000",
"O c #120000",
"+ c #140000",
"@ c #150000",
"# c #160000",
"$ c #170000",
"% c #180000",
"& c #1E0000",
"* c #393127",
"= c #3F382C",
"- c #490000",
"; c #4A0000",
": c #4B0000",
"> c #4E0000",
", c #500000",
"< c #510000",
"1 c #570000",
"2 c #530403",
"3 c #5C0000",
"4 c #5D0000",
"5 c #5E0000",
"6 c #5F0000",
"7 c #530C09",
"8 c #750000",
"9 c #7A0000",
"0 c #7C0000",
"q c #7F0000",
"w c #463E30",
"e c #473E30",
"r c #483F31",
"t c #483F32",
"y c #4A4032",
"u c #800000",
"i c #840000",
"p c #850000",
"a c #860000",
"s c #9E0000",
"d c #9F0000",
"f c #A00000",
"g c #A70000",
"h c #AC0000",
"j c #AE0000",
"k c #AF0000",
"l c #B00000",
"z c #B10000",
"x c #B50000",
"c c #B60000",
"v c #B70000",
"b c #D30000",
"n c #E30000",
"m c #E60000",
"M c #EB0000",
"N c #EC0000",
"B c #ED0000",
"V c #EF0000",
"C c #F50000",
"Z c #FD0000",
"A c red",
"S c #927F63",
"D c #C2AA85",
"F c #CEB58E",
"G c #CFB68E",
"H c #D0B78F",
"J c None",
/* pixels */
"JJJJJJJJJJJJJJJJJJJJJJJJJJJJ==JJ",
"JJJJJJJJJJJJJJJJJJJJJJJJJJJeGDJJ",
"JJJJJJJJJJJJJJJJJJJJJJJJJJyGGtJJ",
"JJJJJJJJJJJJJJJJJJJJJJJJJwHHwJJJ",
"JJJJJJJJJJJJJJJJJJJJJJJJtGGtJJJJ",
"JJJJJJJJJJJJJJJJJJJJJJJeHHtJJJJJ",
"JJJJJJJJJJJJJJJJJJJJJJyGGeJJJJJJ",
"JJJJJJJJJJJJJJJJJJJJJwHHtJJJJJJJ",
"JJJJJJJJJJJJJJJJJJJJtGGtJJJJJJJJ",
"JJJJJJJJJJJJJJJJJJJeHHtJJJJJJJJJ",
"JJJJJJJJJJJJJJJJJJtHGeJJJJJJJJJJ",
"JJJJJJJJJJJJJJJJJtHHtJJJJJJJJJJJ",
"JJJJJJJJJJJJJJJJyGGwJJJJJJJJJJJJ",
"JJJJJJJJJJJJJJJwGHtJJJJJJJJJJJJJ",
"JJJJJJJJJJJJ. tGGtJJJJJJJJJJJJJJ",
"JJJJicMMni++g2SGtJJJJJJJJJJJJJJJ",
"JJ+jAAAAAAl,CB7*JJJJJJJJJJJJJJJJ",
"J8uAAAAAAAAijAc.JJJJJJJJJJJJJJJJ",
"JbiAAAAAAAAB4jjoJJJJJJJJJJJJJJJJ",
"J04nAAAAAAAAB1oJJJJJJJJJJJJJJJJJ",
"J&fiAAAAAAAAAB:JJJJJJJJJJJJJJJJJ",
"JJ06lAAAAAAAAAcJJJJJJJJJJJJJJJJJ",
"JJ+f4jZAAAAAAABJJJJJJJJJJJJJJJJJ",
"JJJ+s4jAAAAAAABJJJJJJJJJJJJJJJJJ",
"JJJJ%f4lAAAAAAnJJJJJJJJJJJJJJJJJ",
"JJJJJ+f4lAAAAAiJJJJJJJJJJJJJJJJJ",
"JJJJJJ+f4jCAZl+JJJJJJJJJJJJJJJJJ",
"JJJJJJJ%su4vj+JJJJJJJJJJJJJJJJJJ",
"JJJJJJJJJ>si:JJJJJJJJJJJJJJJJJJJ",
"JJJJJJJJJJO,:JJJJJJJJJJJJJJJJJJJ",
"JJJJJJJJJJJJJJJJJJJJJJJJJJJJJJJJ",
"JJJJJJJJJJJJJJJJJJJJJJJJJJJJJJJJ"
};
